HIERARCHY
ROOT Hips
{
	OFFSET -0.001795 -0.223333 0.028219
	CHANNELS 6 Xposition Yposition Zposition Zrotation Yrotation Xrotation 
	JOINT LeftUpLeg
	{
		OFFSET 0.069520 -0.091406 -0.006815
		CHANNELS 3 Zrotation Yrotation Xrotation
		JOINT LeftLeg
		{
			OFFSET 0.034277 -0.375199 -0.004496
			CHANNELS 3 Zrotation Yrotation Xrotation
			JOINT LeftFoot
			{
				OFFSET -0.013596 -0.397961 -0.043693
				CHANNELS 3 Zrotation Yrotation Xrotation
				JOINT LeftToe
				{
					OFFSET 0.026358 -0.055791 0.119288
					CHANNELS 3 Zrotation Yrotation Xrotation
					End Site
					{
						OFFSET 0.000000 0.000000 0.000000
					}
				}
			}
		}
	}
	JOINT RightUpLeg
	{
		OFFSET -0.067670 -0.090522 -0.004320
		CHANNELS 3 Zrotation Yrotation Xrotation
		JOINT RightLeg
		{
			OFFSET -0.038290 -0.382569 -0.008850
			CHANNELS 3 Zrotation Yrotation Xrotation
			JOINT RightFoot
			{
				OFFSET 0.015774 -0.398415 -0.042312
				CHANNELS 3 Zrotation Yrotation Xrotation
				JOINT RightToe
				{
					OFFSET -0.025372 -0.048144 0.123348
					CHANNELS 3 Zrotation Yrotation Xrotation
					End Site
					{
						OFFSET 0.000000 0.000000 0.000000
					}
				}
			}
		}
	}
	JOINT Spine
	{
		OFFSET -0.002533 0.108963 -0.026696
		CHANNELS 3 Zrotation Yrotation Xrotation
		JOINT Spine1
		{
			OFFSET 0.005487 0.135180 0.001092
			CHANNELS 3 Zrotation Yrotation Xrotation
			JOINT Spine2
			{
				OFFSET 0.001457 0.052922 0.025425
				CHANNELS 3 Zrotation Yrotation Xrotation
				JOINT Neck
				{
					OFFSET -0.002778 0.213870 -0.042857
					CHANNELS 3 Zrotation Yrotation Xrotation
					JOINT Head
					{
						OFFSET 0.005152 0.064970 0.051349
						CHANNELS 3 Zrotation Yrotation Xrotation
						End Site
						{
							OFFSET 0.000000 0.000000 0.000000
						}
					}
				}
				JOINT LeftShoulder
				{
					OFFSET 0.078845 0.121749 -0.034090
					CHANNELS 3 Zrotation Yrotation Xrotation
					JOINT LeftArm
					{
						OFFSET 0.090977 0.030469 -0.008868
						CHANNELS 3 Zrotation Yrotation Xrotation
						JOINT LeftForeArm
						{
							OFFSET 0.259612 -0.012772 -0.027456
							CHANNELS 3 Zrotation Yrotation Xrotation
							JOINT LeftHand
							{
								OFFSET 0.249234 0.008986 -0.001171
								CHANNELS 3 Zrotation Yrotation Xrotation
								End Site
								{
									OFFSET 0.000000 0.000000 0.000000
								}
							}
						}
					}
				}
				JOINT RightShoulder
				{
					OFFSET -0.081759 0.118833 -0.038615
					CHANNELS 3 Zrotation Yrotation Xrotation
					JOINT RightArm
					{
						OFFSET -0.096012 0.032551 -0.009143
						CHANNELS 3 Zrotation Yrotation Xrotation
						JOINT RightForeArm
						{
							OFFSET -0.253742 -0.013329 -0.021401
							CHANNELS 3 Zrotation Yrotation Xrotation
							JOINT RightHand
							{
								OFFSET -0.255298 0.007772 -0.005559
								CHANNELS 3 Zrotation Yrotation Xrotation
								End Site
								{
									OFFSET 0.000000 0.000000 0.000000
								}
							}
						}
					}
				}
			}
		}
	}
}
MOTION
Frames: 13
Frame Time: 0.050000
0.187883 0.957156 0.159703 -4.935209 -5.411135 9.265271 3.860966 -1.152925 -22.982648 2.287995 -0.744397 10.553542 -0.918610 1.917089 10.398472 0.000000 0.000000 0.000000 -0.301956 2.855918 -25.987180 -3.112004 1.874237 19.581678 -0.009011 -3.147436 5.702730 0.000000 0.000000 0.000000 0.092778 -0.656853 19.199678 -1.685843 0.799775 0.365270 -10.130755 8.382155 7.500584 11.463555 -6.503575 -10.357674 0.000000 0.000000 0.000000 5.163294 -31.867360 9.898809 -14.384411 -42.341485 0.849863 58.641747 -36.300718 -20.231203 0.000000 0.000000 0.000000 -4.046029 17.612798 6.048136 35.529402 39.839870 8.319069 -66.902612 66.485124 -39.359953 0.000000 0.000000 0.000000 
0.191876 0.956217 0.163961 -5.047694 -6.303906 10.307435 4.147185 -1.073027 -23.336215 2.565143 -0.758438 9.835281 -0.504335 2.890246 11.643762 0.000000 0.000000 0.000000 1.062015 3.097692 -25.737812 -5.088714 1.747453 13.240397 0.923537 -3.201290 9.809457 0.000000 0.000000 0.000000 0.327093 -0.703007 20.366034 -2.326955 1.121979 1.493595 -12.263992 8.624571 5.939862 12.601307 -7.304443 -10.018160 0.000000 0.000000 0.000000 8.946536 -34.593473 10.048865 -8.575594 -44.453510 -0.941049 57.497189 -27.333937 -14.841833 0.000000 0.000000 0.000000 -7.801067 20.507329 6.399358 27.726832 42.923171 7.007774 -59.797682 51.408413 -24.919448 0.000000 0.000000 0.000000 
0.194036 0.954951 0.167132 -4.892677 -6.737759 11.449206 4.267676 -1.061506 -24.634762 2.325566 -0.729407 10.539461 -0.231082 3.092624 10.931530 0.000000 0.000000 0.000000 0.418578 2.977877 -25.538069 -4.798918 1.340269 9.838652 1.384475 -3.844426 13.150821 0.000000 0.000000 0.000000 -0.784514 -0.446452 22.070752 -3.021715 1.439464 0.996319 -12.563497 9.038630 5.147887 13.721736 -8.124871 -9.681762 0.000000 0.000000 0.000000 12.788626 -36.928295 9.932758 -3.354380 -45.718335 -2.830576 57.579536 -20.798098 -11.374324 0.000000 0.000000 0.000000 -11.756193 22.006453 6.138776 19.833626 43.935182 4.795152 -54.428215 39.520524 -16.027641 0.000000 0.000000 0.000000 
0.194789 0.954089 0.169417 -4.764390 -6.658836 12.152356 4.772441 -0.991041 -25.528375 1.432963 -0.556323 10.984223 -0.484157 2.568382 10.591908 0.000000 0.000000 0.000000 0.762687 3.070295 -25.855182 -6.131858 1.393656 8.112761 1.768760 -4.019702 15.271312 0.000000 0.000000 0.000000 -1.491364 -0.271684 23.763346 -3.187761 1.526346 1.509855 -13.367304 8.780466 4.305876 14.221857 -8.792110 -8.472923 0.000000 0.000000 0.000000 15.943770 -38.055090 9.561824 1.324858 -47.195287 -4.690413 58.834796 -15.437424 -8.743809 0.000000 0.000000 0.000000 -14.943659 23.051548 5.848030 12.899722 43.476057 2.570561 -50.780772 30.846170 -10.849068 0.000000 0.000000 0.000000 
0.194807 0.953075 0.171158 -5.122891 -7.062112 13.282885 5.845552 -0.758616 -27.594377 0.525834 -0.387922 12.908821 -0.489525 2.333347 9.982055 0.000000 0.000000 0.000000 0.832180 3.133958 -26.115033 -5.503273 1.151416 6.826326 1.888768 -3.861774 15.228707 0.000000 0.000000 0.000000 -2.470603 0.037173 24.850111 -2.908333 1.393196 1.535505 -13.819068 9.190531 4.056528 14.384019 -8.874451 -8.409091 0.000000 0.000000 0.000000 19.588863 -37.937923 8.830244 5.796103 -48.721749 -6.783793 58.559457 -11.467856 -6.589006 0.000000 0.000000 0.000000 -18.608123 22.819143 5.093483 7.625661 44.057144 1.094155 -47.446040 24.325602 -7.311400 0.000000 0.000000 0.000000 
0.194703 0.952002 0.172635 -5.268441 -6.961182 14.962304 6.507241 -0.611310 -30.019381 -0.273442 -0.209637 13.728870 -1.139333 1.310145 10.323733 0.000000 0.000000 0.000000 1.209185 3.327498 -27.065564 -6.251461 1.200600 6.241879 1.968134 -3.907447 15.645994 0.000000 0.000000 0.000000 -2.813499 0.159191 25.683798 -2.671241 1.267204 1.190077 -14.642073 8.879147 3.951824 14.352334 -8.930622 -8.015140 0.000000 0.000000 0.000000 21.417385 -38.767961 8.622461 10.162468 -48.803492 -8.533963 57.912546 -8.145663 -4.625187 0.000000 0.000000 0.000000 -21.242555 22.270465 4.563315 3.608279 44.416966 -0.134489 -44.430826 20.815646 -5.491439 0.000000 0.000000 0.000000 
0.194172 0.950365 0.173548 -5.387266 -7.127373 16.428082 7.223039 -0.390172 -32.279730 -0.842419 -0.068322 15.124449 -1.184541 0.943390 9.502715 0.000000 0.000000 0.000000 1.371864 3.548416 -28.325386 -6.097400 1.157235 6.097105 1.865502 -3.887929 15.037240 0.000000 0.000000 0.000000 -3.473584 0.414946 26.815502 -2.309920 1.088632 0.776687 -15.124174 8.757854 3.819307 14.125464 -8.909635 -7.419799 0.000000 0.000000 0.000000 22.635511 -39.452840 8.508418 13.781275 -48.122927 -9.792625 56.036425 -5.253384 -2.884568 0.000000 0.000000 0.000000 -22.718600 21.679015 4.265994 0.401089 44.781517 -1.156115 -42.685613 18.653192 -4.488963 0.000000 0.000000 0.000000 
0.192923 0.948424 0.173617 -5.628526 -6.964477 17.857525 7.677221 -0.231247 -34.708371 -0.689950 -0.113227 16.537600 -1.836836 0.079233 10.300559 0.000000 0.000000 0.000000 1.685897 3.830292 -29.856083 -6.094452 1.225130 6.763550 1.257175 -4.989731 14.970008 0.000000 0.000000 0.000000 -3.874239 0.585202 28.069460 -2.271885 1.069239 0.913005 -15.084284 8.121692 3.567245 13.913676 -8.385005 -8.483639 0.000000 0.000000 0.000000 23.745434 -40.347739 8.418013 17.209462 -47.476166 -10.848010 53.070023 -2.387672 -1.194667 0.000000 0.000000 0.000000 -24.215512 21.004858 4.033185 -2.076671 45.069662 -2.018956 -41.203486 17.762751 -4.056182 0.000000 0.000000 0.000000 
0.190537 0.947429 0.173229 -5.636001 -6.662215 19.219630 7.816857 -0.158483 -37.184911 -0.405814 -0.204855 18.015538 -1.831825 0.037038 10.060157 0.000000 0.000000 0.000000 1.837752 4.013103 -30.981918 -5.632194 1.141618 6.666545 0.668929 -5.902421 14.567631 0.000000 0.000000 0.000000 -4.507370 0.837352 29.292929 -1.682671 0.793397 0.704340 -15.521012 7.777016 3.327592 13.666151 -7.988288 -9.075245 0.000000 0.000000 0.000000 24.452192 -40.776399 8.379403 19.592972 -47.082655 -11.648066 49.693269 -1.475639 -0.613044 0.000000 0.000000 0.000000 -24.755307 20.610520 3.969401 -3.125116 45.190555 -2.372861 -41.102982 18.006279 -4.104234 0.000000 0.000000 0.000000 
0.187016 0.946868 0.173067 -5.845466 -6.457400 20.438077 8.114476 -0.035271 -39.024407 0.296422 -0.414351 18.857114 -2.141368 -0.470194 10.129309 0.000000 0.000000 0.000000 2.379561 4.251288 -31.901915 -5.817518 1.136714 6.368433 0.278980 -6.742076 14.857440 0.000000 0.000000 0.000000 -5.123457 1.115603 30.653596 -1.197844 0.573253 1.053199 -15.768290 8.026137 2.718966 14.114777 -8.283367 -8.864211 0.000000 0.000000 0.000000 24.736623 -42.265138 8.632440 21.025442 -46.153983 -12.006441 46.997050 -1.089404 -0.371229 0.000000 0.000000 0.000000 -25.067171 20.391480 3.923372 -3.736990 45.211920 -2.468294 -40.472032 18.431909 -4.094890 0.000000 0.000000 0.000000 
0.182751 0.946664 0.173153 -5.810232 -6.484972 21.745961 8.586031 0.160205 -40.266147 0.630127 -0.503629 18.686588 -2.283656 -0.687504 10.280354 0.000000 0.000000 0.000000 2.558062 4.413963 -32.719580 -5.703635 1.035978 5.578152 -0.202384 -7.755224 15.096385 0.000000 0.000000 0.000000 -5.873631 1.482615 31.735270 -0.912627 0.443377 0.779740 -15.730805 7.426384 3.113655 13.475704 -7.545099 -9.876071 0.000000 0.000000 0.000000 25.689550 -42.144023 8.382851 21.841826 -45.975407 -12.148566 43.158012 -1.204779 -0.298685 0.000000 0.000000 0.000000 -26.405074 20.313707 3.831775 -4.976180 46.018557 -3.004453 -40.401502 17.803000 -3.949049 0.000000 0.000000 0.000000 
0.177992 0.946835 0.173415 -5.862798 -6.353146 23.213264 9.076526 0.341369 -41.306955 1.333898 -0.691478 18.113644 -2.645454 -1.158376 10.765359 0.000000 0.000000 0.000000 3.138874 4.688178 -33.728569 -6.078342 1.047419 5.209858 -0.548787 -8.464841 15.210107 0.000000 0.000000 0.000000 -6.527979 1.790981 32.313163 -0.354331 0.192262 0.932570 -16.033452 7.604352 2.940767 13.523893 -7.470603 -10.049198 0.000000 0.000000 0.000000 26.752930 -42.740556 8.246098 22.789739 -44.804485 -12.158601 38.650145 -1.066600 -0.223573 0.000000 0.000000 0.000000 -27.154000 20.895621 3.855700 -6.032554 45.644206 -3.261723 -39.000349 17.376471 -3.643656 0.000000 0.000000 0.000000 
0.172984 0.946888 0.173334 -5.980550 -6.391954 24.230169 9.533147 0.556488 -42.421240 1.545241 -0.754091 18.540643 -2.600122 -1.152433 10.614671 0.000000 0.000000 0.000000 3.239236 4.873564 -34.699177 -5.640053 0.949719 4.861880 -0.612206 -8.767656 15.673286 0.000000 0.000000 0.000000 -7.279008 2.186791 33.241516 -0.138670 0.096915 0.801636 -15.810773 8.033457 3.450557 13.800049 -7.312701 -11.164577 0.000000 0.000000 0.000000 30.096061 -42.164818 7.340035 24.014596 -43.653952 -12.332197 33.783353 0.383277 0.134058 0.000000 0.000000 0.000000 -28.876008 20.629958 3.520635 -7.501456 45.987455 -3.654430 -37.114672 15.131312 -2.786562 0.000000 0.000000 0.000000 
